<svg width="1200" height="2300" viewBox="0 0 1200 2300" fill="none" xmlns="http://www.w3.org/2000/svg">
<rect width="1200" height="2300" fill="white"/>
<g clip-path="url(#clip0_1_2)">
<path d="M1100 100H100V1100H1100V100Z" fill="white"/>
<path d="M100 100H130.303V130.303H100V100ZM130.303 100H160.606V130.303H130.303V100ZM160.606 100H190.909V130.303H160.606V100ZM190.909 100H221.212V130.303H190.909V100ZM221.212 100H251.515V130.303H221.212V100ZM251.515 100H281.818V130.303H251.515V100ZM281.818 100H312.121V130.303H281.818V100ZM372.727 100H403.03V130.303H372.727V100ZM524.242 100H554.545V130.303H524.242V100ZM584.848 100H615.152V130.303H584.848V100ZM645.455 100H675.758V130.303H645.455V100ZM675.758 100H706.061V130.303H675.758V100ZM766.667 100H796.97V130.303H766.667V100ZM796.97 100H827.273V130.303H796.97V100ZM887.879 100H918.182V130.303H887.879V100ZM918.182 100H948.485V130.303H918.182V100ZM948.485 100H978.788V130.303H948.485V100ZM978.788 100H1009.09V130.303H978.788V100ZM1009.09 100H1039.39V130.303H1009.09V100ZM1039.39 100H1069.7V130.303H1039.39V100ZM1069.7 100H1100V130.303H1069.7V100ZM100 130.303H130.303V160.606H100V130.303ZM281.818 130.303H312.121V160.606H281.818V130.303ZM403.03 130.303H433.333V160.606H403.03V130.303ZM433.333 130.303H463.636V160.606H433.333V130.303ZM554.545 130.303H584.848V160.606H554.545V130.303ZM645.455 130.303H675.758V160.606H645.455V130.303ZM706.061 130.303H736.364V160.606H706.061V130.303ZM766.667 130.303H796.97V160.606H766.667V130.303ZM827.273 130.303H857.576V160.606H827.273V130.303ZM887.879 130.303H918.182V160.606H887.879V130.303ZM1069.7 130.303H1100V160.606H1069.7V130.303ZM100 160.606H130.303V190.909H100V160.606ZM160.606 160.606H190.909V190.909H160.606V160.606ZM190.909 160.606H221.212V190.909H190.909V160.606ZM221.212 160.606H251.515V190.909H221.212V160.606ZM281.818 160.606H312.121V190.909H281.818V160.606ZM342.424 160.606H372.727V190.909H342.424V160.606ZM372.727 160.606H403.03V190.909H372.727V160.606ZM403.03 160.606H433.333V190.909H403.03V160.606ZM433.333 160.606H463.636V190.909H433.333V160.606ZM524.242 160.606H554.545V190.909H524.242V160.606ZM584.848 160.606H615.152V190.909H584.848V160.606ZM675.758 160.606H706.061V190.909H675.758V160.606ZM736.364 160.606H766.667V190.909H736.364V160.606ZM766.667 160.606H796.97V190.909H766.667V160.606ZM796.97 160.606H827.273V190.909H796.97V160.606ZM887.879 160.606H918.182V190.909H887.879V160.606ZM948.485 160.606H978.788V190.909H948.485V160.606ZM978.788 160.606H1009.09V190.909H978.788V160.606ZM1009.09 160.606H1039.39V190.909H1009.09V160.606ZM1069.7 160.606H1100V190.909H1069.7V160.606ZM100 190.909H130.303V221.212H100V190.909ZM160.606 190.909H190.909V221.212H160.606V190.909ZM190.909 190.909H221.212V221.212H190.909V190.909ZM221.212 190.909H251.515V221.212H221.212V190.909ZM281.818 190.909H312.121V221.212H281.818V190.909ZM342.424 190.909H372.727V221.212H342.424V190.909ZM403.03 190.909H433.333V221.212H403.03V190.909ZM433.333 190.909H463.636V221.212H433.333V190.909ZM645.455 190.909H675.758V221.212H645.455V190.909ZM766.667 190.909H796.97V221.212H766.667V190.909ZM796.97 190.909H827.273V221.212H796.97V190.909ZM827.273 190.909H857.576V221.212H827.273V190.909ZM887.879 190.909H918.182V221.212H887.879V190.909ZM948.485 190.909H978.788V221.212H948.485V190.909ZM978.788 190.909H1009.09V221.212H978.788V190.909ZM1009.09 190.909H1039.39V221.212H1009.09V190.909ZM1069.7 190.909H1100V221.212H1069.7V190.909ZM100 221.212H130.303V251.515H100V221.212ZM160.606 221.212H190.909V251.515H160.606V221.212ZM190.909 221.212H221.212V251.515H190.909V221.212ZM221.212 221.212H251.515V251.515H221.212V221.212ZM281.818 221.212H312.121V251.515H281.818V221.212ZM342.424 221.212H372.727V251.515H342.424V221.212ZM524.242 221.212H554.545V251.515H524.242V221.212ZM554.545 221.212H584.848V251.515H554.545V221.212ZM584.848 221.212H615.152V251.515H584.848V221.212ZM615.152 221.212H645.455V251.515H615.152V221.212ZM706.061 221.212H736.364V251.515H706.061V221.212ZM736.364 221.212H766.667V251.515H736.364V221.212ZM796.97 221.212H827.273V251.515H796.97V221.212ZM887.879 221.212H918.182V251.515H887.879V221.212ZM948.485 221.212H978.788V251.515H948.485V221.212ZM978.788 221.212H1009.09V251.515H978.788V221.212ZM1009.09 221.212H1039.39V251.515H1009.09V221.212ZM1069.7 221.212H1100V251.515H1069.7V221.212ZM100 251.515H130.303V281.818H100V251.515ZM281.818 251.515H312.121V281.818H281.818V251.515ZM342.424 251.515H372.727V281.818H342.424V251.515ZM463.636 251.515H493.939V281.818H463.636V251.515ZM524.242 251.515H554.545V281.818H524.242V251.515ZM615.152 251.515H645.455V281.818H615.152V251.515ZM675.758 251.515H706.061V281.818H675.758V251.515ZM736.364 251.515H766.667V281.818H736.364V251.515ZM766.667 251.515H796.97V281.818H766.667V251.515ZM827.273 251.515H857.576V281.818H827.273V251.515ZM887.879 251.515H918.182V281.818H887.879V251.515ZM1069.7 251.515H1100V281.818H1069.7V251.515ZM100 281.818H130.303V312.121H100V281.818ZM130.303 281.818H160.606V312.121H130.303V281.818ZM160.606 281.818H190.909V312.121H160.606V281.818ZM190.909 281.818H221.212V312.121H190.909V281.818ZM221.212 281.818H251.515V312.121H221.212V281.818ZM251.515 281.818H281.818V312.121H251.515V281.818ZM281.818 281.818H312.121V312.121H281.818V281.818ZM342.424 281.818H372.727V312.121H342.424V281.818ZM403.03 281.818H433.333V312.121H403.03V281.818ZM463.636 281.818H493.939V312.121H463.636V281.818ZM524.242 281.818H554.545V312.121H524.242V281.818ZM584.848 281.818H615.152V312.121H584.848V281.818ZM645.455 281.818H675.758V312.121H645.455V281.818ZM706.061 281.818H736.364V312.121H706.061V281.818ZM766.667 281.818H796.97V312.121H766.667V281.818ZM827.273 281.818H857.576V312.121H827.273V281.818ZM887.879 281.818H918.182V312.121H887.879V281.818ZM918.182 281.818H948.485V312.121H918.182V281.818ZM948.485 281.818H978.788V312.121H948.485V281.818ZM978.788 281.818H1009.09V312.121H978.788V281.818ZM1009.09 281.818H1039.39V312.121H1009.09V281.818ZM1039.39 281.818H1069.7V312.121H1039.39V281.818ZM1069.7 281.818H1100V312.121H1069.7V281.818ZM342.424 312.121H372.727V342.424H342.424V312.121ZM403.03 312.121H433.333V342.424H403.03V312.121ZM433.333 312.121H463.636V342.424H433.333V312.121ZM463.636 312.121H493.939V342.424H463.636V312.121ZM584.848 312.121H615.152V342.424H584.848V312.121ZM675.758 312.121H706.061V342.424H675.758V312.121ZM706.061 312.121H736.364V342.424H706.061V312.121ZM736.364 312.121H766.667V342.424H736.364V312.121ZM766.667 312.121H796.97V342.424H766.667V312.121ZM100 342.424H130.303V372.727H100V342.424ZM160.606 342.424H190.909V372.727H160.606V342.424ZM190.909 342.424H221.212V372.727H190.909V342.424ZM221.212 342.424H251.515V372.727H221.212V342.424ZM251.515 342.424H281.818V372.727H251.515V342.424ZM281.818 342.424H312.121V372.727H281.818V342.424ZM403.03 342.424H433.333V372.727H403.03V342.424ZM433.333 342.424H463.636V372.727H433.333V342.424ZM493.939 342.424H524.242V372.727H493.939V342.424ZM524.242 342.424H554.545V372.727H524.242V342.424ZM615.152 342.424H645.455V372.727H615.152V342.424ZM675.758 342.424H706.061V372.727H675.758V342.424ZM706.061 342.424H736.364V372.727H706.061V342.424ZM766.667 342.424H796.97V372.727H766.667V342.424ZM796.97 342.424H827.273V372.727H796.97V342.424ZM827.273 342.424H857.576V372.727H827.273V342.424ZM887.879 342.424H918.182V372.727H887.879V342.424ZM918.182 342.424H948.485V372.727H918.182V342.424ZM948.485 342.424H978.788V372.727H948.485V342.424ZM978.788 342.424H1009.09V372.727H978.788V342.424ZM1009.09 342.424H1039.39V372.727H1009.09V342.424ZM130.303 372.727H160.606V403.03H130.303V372.727ZM160.606 372.727H190.909V403.03H160.606V372.727ZM342.424 372.727H372.727V403.03H342.424V372.727ZM372.727 372.727H403.03V403.03H372.727V372.727ZM433.333 372.727H463.636V403.03H433.333V372.727ZM493.939 372.727H524.242V403.03H493.939V372.727ZM584.848 372.727H615.152V403.03H584.848V372.727ZM615.152 372.727H645.455V403.03H615.152V372.727ZM645.455 372.727H675.758V403.03H645.455V372.727ZM675.758 372.727H706.061V403.03H675.758V372.727ZM706.061 372.727H736.364V403.03H706.061V372.727ZM736.364 372.727H766.667V403.03H736.364V372.727ZM796.97 372.727H827.273V403.03H796.97V372.727ZM887.879 372.727H918.182V403.03H887.879V372.727ZM918.182 372.727H948.485V403.03H918.182V372.727ZM978.788 372.727H1009.09V403.03H978.788V372.727ZM1009.09 372.727H1039.39V403.03H1009.09V372.727ZM1069.7 372.727H1100V403.03H1069.7V372.727ZM100 403.03H130.303V433.333H100V403.03ZM130.303 403.03H160.606V433.333H130.303V403.03ZM160.606 403.03H190.909V433.333H160.606V403.03ZM190.909 403.03H221.212V433.333H190.909V403.03ZM251.515 403.03H281.818V433.333H251.515V403.03ZM281.818 403.03H312.121V433.333H281.818V403.03ZM312.121 403.03H342.424V433.333H312.121V403.03ZM342.424 403.03H372.727V433.333H342.424V403.03ZM433.333 403.03H463.636V433.333H433.333V403.03ZM463.636 403.03H493.939V433.333H463.636V403.03ZM493.939 403.03H524.242V433.333H493.939V403.03ZM524.242 403.03H554.545V433.333H524.242V403.03ZM554.545 403.03H584.848V433.333H554.545V403.03ZM584.848 403.03H615.152V433.333H584.848V403.03ZM615.152 403.03H645.455V433.333H615.152V403.03ZM706.061 403.03H736.364V433.333H706.061V403.03ZM736.364 403.03H766.667V433.333H736.364V403.03ZM857.576 403.03H887.879V433.333H857.576V403.03ZM887.879 403.03H918.182V433.333H887.879V403.03ZM948.485 403.03H978.788V433.333H948.485V403.03ZM1009.09 403.03H1039.39V433.333H1009.09V403.03ZM1039.39 403.03H1069.7V433.333H1039.39V403.03ZM100 433.333H130.303V463.636H100V433.333ZM130.303 433.333H160.606V463.636H130.303V433.333ZM221.212 433.333H251.515V463.636H221.212V433.333ZM433.333 433.333H463.636V463.636H433.333V433.333ZM493.939 433.333H524.242V463.636H493.939V433.333ZM554.545 433.333H584.848V463.636H554.545V433.333ZM615.152 433.333H645.455V463.636H615.152V433.333ZM645.455 433.333H675.758V463.636H645.455V433.333ZM675.758 433.333H706.061V463.636H675.758V433.333ZM736.364 433.333H766.667V463.636H736.364V433.333ZM766.667 433.333H796.97V463.636H766.667V433.333ZM827.273 433.333H857.576V463.636H827.273V433.333ZM857.576 433.333H887.879V463.636H857.576V433.333ZM887.879 433.333H918.182V463.636H887.879V433.333ZM948.485 433.333H978.788V463.636H948.485V433.333ZM978.788 433.333H1009.09V463.636H978.788V433.333ZM1009.09 433.333H1039.39V463.636H1009.09V433.333ZM1039.39 433.333H1069.7V463.636H1039.39V433.333ZM1069.7 433.333H1100V463.636H1069.7V433.333ZM100 463.636H130.303V493.939H100V463.636ZM130.303 463.636H160.606V493.939H130.303V463.636ZM160.606 463.636H190.909V493.939H160.606V463.636ZM221.212 463.636H251.515V493.939H221.212V463.636ZM251.515 463.636H281.818V493.939H251.515V463.636ZM281.818 463.636H312.121V493.939H281.818V463.636ZM312.121 463.636H342.424V493.939H312.121V463.636ZM372.727 463.636H403.03V493.939H372.727V463.636ZM433.333 463.636H463.636V493.939H433.333V463.636ZM524.242 463.636H554.545V493.939H524.242V463.636ZM584.848 463.636H615.152V493.939H584.848V463.636ZM675.758 463.636H706.061V493.939H675.758V463.636ZM706.061 463.636H736.364V493.939H706.061V463.636ZM766.667 463.636H796.97V493.939H766.667V463.636ZM827.273 463.636H857.576V493.939H827.273V463.636ZM918.182 463.636H948.485V493.939H918.182V463.636ZM948.485 463.636H978.788V493.939H948.485V463.636ZM978.788 463.636H1009.09V493.939H978.788V463.636ZM1039.39 463.636H1069.7V493.939H1039.39V463.636ZM221.212 493.939H251.515V524.242H221.212V493.939ZM312.121 493.939H342.424V524.242H312.121V493.939ZM342.424 493.939H372.727V524.242H342.424V493.939ZM403.03 493.939H433.333V524.242H403.03V493.939ZM433.333 493.939H463.636V524.242H433.333V493.939ZM493.939 493.939H524.242V524.242H493.939V493.939ZM554.545 493.939H584.848V524.242H554.545V493.939ZM615.152 493.939H645.455V524.242H615.152V493.939ZM645.455 493.939H675.758V524.242H645.455V493.939ZM796.97 493.939H827.273V524.242H796.97V493.939ZM857.576 493.939H887.879V524.242H857.576V493.939ZM887.879 493.939H918.182V524.242H887.879V493.939ZM918.182 493.939H948.485V524.242H918.182V493.939ZM978.788 493.939H1009.09V524.242H978.788V493.939ZM1009.09 493.939H1039.39V524.242H1009.09V493.939ZM1039.39 493.939H1069.7V524.242H1039.39V493.939ZM1069.7 493.939H1100V524.242H1069.7V493.939ZM100 524.242H130.303V554.545H100V524.242ZM130.303 524.242H160.606V554.545H130.303V524.242ZM190.909 524.242H221.212V554.545H190.909V524.242ZM221.212 524.242H251.515V554.545H221.212V524.242ZM281.818 524.242H312.121V554.545H281.818V524.242ZM372.727 524.242H403.03V554.545H372.727V524.242ZM403.03 524.242H433.333V554.545H403.03V524.242ZM524.242 524.242H554.545V554.545H524.242V524.242ZM554.545 524.242H584.848V554.545H554.545V524.242ZM584.848 524.242H615.152V554.545H584.848V524.242ZM645.455 524.242H675.758V554.545H645.455V524.242ZM706.061 524.242H736.364V554.545H706.061V524.242ZM736.364 524.242H766.667V554.545H736.364V524.242ZM766.667 524.242H796.97V554.545H766.667V524.242ZM857.576 524.242H887.879V554.545H857.576V524.242ZM887.879 524.242H918.182V554.545H887.879V524.242ZM918.182 524.242H948.485V554.545H918.182V524.242ZM948.485 524.242H978.788V554.545H948.485V524.242ZM978.788 524.242H1009.09V554.545H978.788V524.242ZM1009.09 524.242H1039.39V554.545H1009.09V524.242ZM1039.39 524.242H1069.7V554.545H1039.39V524.242ZM130.303 554.545H160.606V584.848H130.303V554.545ZM190.909 554.545H221.212V584.848H190.909V554.545ZM251.515 554.545H281.818V584.848H251.515V554.545ZM372.727 554.545H403.03V584.848H372.727V554.545ZM403.03 554.545H433.333V584.848H403.03V554.545ZM433.333 554.545H463.636V584.848H433.333V554.545ZM554.545 554.545H584.848V584.848H554.545V554.545ZM736.364 554.545H766.667V584.848H736.364V554.545ZM766.667 554.545H796.97V584.848H766.667V554.545ZM857.576 554.545H887.879V584.848H857.576V554.545ZM887.879 554.545H918.182V584.848H887.879V554.545ZM918.182 554.545H948.485V584.848H918.182V554.545ZM978.788 554.545H1009.09V584.848H978.788V554.545ZM1009.09 554.545H1039.39V584.848H1009.09V554.545ZM100 584.848H130.303V615.152H100V584.848ZM160.606 584.848H190.909V615.152H160.606V584.848ZM221.212 584.848H251.515V615.152H221.212V584.848ZM251.515 584.848H281.818V615.152H251.515V584.848ZM281.818 584.848H312.121V615.152H281.818V584.848ZM312.121 584.848H342.424V615.152H312.121V584.848ZM342.424 584.848H372.727V615.152H342.424V584.848ZM372.727 584.848H403.03V615.152H372.727V584.848ZM403.03 584.848H433.333V615.152H403.03V584.848ZM433.333 584.848H463.636V615.152H433.333V584.848ZM463.636 584.848H493.939V615.152H463.636V584.848ZM493.939 584.848H524.242V615.152H493.939V584.848ZM524.242 584.848H554.545V615.152H524.242V584.848ZM554.545 584.848H584.848V615.152H554.545V584.848ZM615.152 584.848H645.455V615.152H615.152V584.848ZM827.273 584.848H857.576V615.152H827.273V584.848ZM857.576 584.848H887.879V615.152H857.576V584.848ZM918.182 584.848H948.485V615.152H918.182V584.848ZM948.485 584.848H978.788V615.152H948.485V584.848ZM1069.7 584.848H1100V615.152H1069.7V584.848ZM160.606 615.152H190.909V645.455H160.606V615.152ZM190.909 615.152H221.212V645.455H190.909V615.152ZM312.121 615.152H342.424V645.455H312.121V615.152ZM342.424 615.152H372.727V645.455H342.424V615.152ZM403.03 615.152H433.333V645.455H403.03V615.152ZM524.242 615.152H554.545V645.455H524.242V615.152ZM584.848 615.152H615.152V645.455H584.848V615.152ZM645.455 615.152H675.758V645.455H645.455V615.152ZM675.758 615.152H706.061V645.455H675.758V615.152ZM706.061 615.152H736.364V645.455H706.061V615.152ZM736.364 615.152H766.667V645.455H736.364V615.152ZM796.97 615.152H827.273V645.455H796.97V615.152ZM887.879 615.152H918.182V645.455H887.879V615.152ZM918.182 615.152H948.485V645.455H918.182V615.152ZM978.788 615.152H1009.09V645.455H978.788V615.152ZM1009.09 615.152H1039.39V645.455H1009.09V615.152ZM1039.39 615.152H1069.7V645.455H1039.39V615.152ZM1069.7 615.152H1100V645.455H1069.7V615.152ZM130.303 645.455H160.606V675.758H130.303V645.455ZM190.909 645.455H221.212V675.758H190.909V645.455ZM251.515 645.455H281.818V675.758H251.515V645.455ZM281.818 645.455H312.121V675.758H281.818V645.455ZM312.121 645.455H342.424V675.758H312.121V645.455ZM403.03 645.455H433.333V675.758H403.03V645.455ZM463.636 645.455H493.939V675.758H463.636V645.455ZM493.939 645.455H524.242V675.758H493.939V645.455ZM524.242 645.455H554.545V675.758H524.242V645.455ZM554.545 645.455H584.848V675.758H554.545V645.455ZM584.848 645.455H615.152V675.758H584.848V645.455ZM645.455 645.455H675.758V675.758H645.455V645.455ZM736.364 645.455H766.667V675.758H736.364V645.455ZM766.667 645.455H796.97V675.758H766.667V645.455ZM857.576 645.455H887.879V675.758H857.576V645.455ZM887.879 645.455H918.182V675.758H887.879V645.455ZM918.182 645.455H948.485V675.758H918.182V645.455ZM948.485 645.455H978.788V675.758H948.485V645.455ZM1009.09 645.455H1039.39V675.758H1009.09V645.455ZM1039.39 645.455H1069.7V675.758H1039.39V645.455ZM130.303 675.758H160.606V706.061H130.303V675.758ZM160.606 675.758H190.909V706.061H160.606V675.758ZM221.212 675.758H251.515V706.061H221.212V675.758ZM372.727 675.758H403.03V706.061H372.727V675.758ZM403.03 675.758H433.333V706.061H403.03V675.758ZM433.333 675.758H463.636V706.061H433.333V675.758ZM493.939 675.758H524.242V706.061H493.939V675.758ZM524.242 675.758H554.545V706.061H524.242V675.758ZM554.545 675.758H584.848V706.061H554.545V675.758ZM584.848 675.758H615.152V706.061H584.848V675.758ZM675.758 675.758H706.061V706.061H675.758V675.758ZM736.364 675.758H766.667V706.061H736.364V675.758ZM796.97 675.758H827.273V706.061H796.97V675.758ZM827.273 675.758H857.576V706.061H827.273V675.758ZM857.576 675.758H887.879V706.061H857.576V675.758ZM887.879 675.758H918.182V706.061H887.879V675.758ZM918.182 675.758H948.485V706.061H918.182V675.758ZM948.485 675.758H978.788V706.061H948.485V675.758ZM978.788 675.758H1009.09V706.061H978.788V675.758ZM1009.09 675.758H1039.39V706.061H1009.09V675.758ZM1039.39 675.758H1069.7V706.061H1039.39V675.758ZM160.606 706.061H190.909V736.364H160.606V706.061ZM221.212 706.061H251.515V736.364H221.212V706.061ZM251.515 706.061H281.818V736.364H251.515V706.061ZM281.818 706.061H312.121V736.364H281.818V706.061ZM312.121 706.061H342.424V736.364H312.121V706.061ZM342.424 706.061H372.727V736.364H342.424V706.061ZM433.333 706.061H463.636V736.364H433.333V706.061ZM463.636 706.061H493.939V736.364H463.636V706.061ZM493.939 706.061H524.242V736.364H493.939V706.061ZM645.455 706.061H675.758V736.364H645.455V706.061ZM827.273 706.061H857.576V736.364H827.273V706.061ZM857.576 706.061H887.879V736.364H857.576V706.061ZM948.485 706.061H978.788V736.364H948.485V706.061ZM978.788 706.061H1009.09V736.364H978.788V706.061ZM1039.39 706.061H1069.7V736.364H1039.39V706.061ZM1069.7 706.061H1100V736.364H1069.7V706.061ZM100 736.364H130.303V766.667H100V736.364ZM160.606 736.364H190.909V766.667H160.606V736.364ZM190.909 736.364H221.212V766.667H190.909V736.364ZM251.515 736.364H281.818V766.667H251.515V736.364ZM312.121 736.364H342.424V766.667H312.121V736.364ZM403.03 736.364H433.333V766.667H403.03V736.364ZM433.333 736.364H463.636V766.667H433.333V736.364ZM493.939 736.364H524.242V766.667H493.939V736.364ZM554.545 736.364H584.848V766.667H554.545V736.364ZM584.848 736.364H615.152V766.667H584.848V736.364ZM615.152 736.364H645.455V766.667H615.152V736.364ZM706.061 736.364H736.364V766.667H706.061V736.364ZM766.667 736.364H796.97V766.667H766.667V736.364ZM796.97 736.364H827.273V766.667H796.97V736.364ZM857.576 736.364H887.879V766.667H857.576V736.364ZM887.879 736.364H918.182V766.667H887.879V736.364ZM1009.09 736.364H1039.39V766.667H1009.09V736.364ZM1069.7 736.364H1100V766.667H1069.7V736.364ZM100 766.667H130.303V796.97H100V766.667ZM251.515 766.667H281.818V796.97H251.515V766.667ZM281.818 766.667H312.121V796.97H281.818V766.667ZM312.121 766.667H342.424V796.97H312.121V766.667ZM342.424 766.667H372.727V796.97H342.424V766.667ZM372.727 766.667H403.03V796.97H372.727V766.667ZM433.333 766.667H463.636V796.97H433.333V766.667ZM463.636 766.667H493.939V796.97H463.636V766.667ZM493.939 766.667H524.242V796.97H493.939V766.667ZM615.152 766.667H645.455V796.97H615.152V766.667ZM675.758 766.667H706.061V796.97H675.758V766.667ZM766.667 766.667H796.97V796.97H766.667V766.667ZM827.273 766.667H857.576V796.97H827.273V766.667ZM1039.39 766.667H1069.7V796.97H1039.39V766.667ZM100 796.97H130.303V827.273H100V796.97ZM190.909 796.97H221.212V827.273H190.909V796.97ZM221.212 796.97H251.515V827.273H221.212V796.97ZM342.424 796.97H372.727V827.273H342.424V796.97ZM433.333 796.97H463.636V827.273H433.333V796.97ZM463.636 796.97H493.939V827.273H463.636V796.97ZM493.939 796.97H524.242V827.273H493.939V796.97ZM524.242 796.97H554.545V827.273H524.242V796.97ZM584.848 796.97H615.152V827.273H584.848V796.97ZM645.455 796.97H675.758V827.273H645.455V796.97ZM675.758 796.97H706.061V827.273H675.758V796.97ZM706.061 796.97H736.364V827.273H706.061V796.97ZM736.364 796.97H766.667V827.273H736.364V796.97ZM796.97 796.97H827.273V827.273H796.97V796.97ZM827.273 796.97H857.576V827.273H827.273V796.97ZM857.576 796.97H887.879V827.273H857.576V796.97ZM918.182 796.97H948.485V827.273H918.182V796.97ZM1009.09 796.97H1039.39V827.273H1009.09V796.97ZM1039.39 796.97H1069.7V827.273H1039.39V796.97ZM100 827.273H130.303V857.576H100V827.273ZM221.212 827.273H251.515V857.576H221.212V827.273ZM281.818 827.273H312.121V857.576H281.818V827.273ZM312.121 827.273H342.424V857.576H312.121V827.273ZM342.424 827.273H372.727V857.576H342.424V827.273ZM372.727 827.273H403.03V857.576H372.727V827.273ZM463.636 827.273H493.939V857.576H463.636V827.273ZM524.242 827.273H554.545V857.576H524.242V827.273ZM615.152 827.273H645.455V857.576H615.152V827.273ZM675.758 827.273H706.061V857.576H675.758V827.273ZM706.061 827.273H736.364V857.576H706.061V827.273ZM766.667 827.273H796.97V857.576H766.667V827.273ZM827.273 827.273H857.576V857.576H827.273V827.273ZM857.576 827.273H887.879V857.576H857.576V827.273ZM887.879 827.273H918.182V857.576H887.879V827.273ZM918.182 827.273H948.485V857.576H918.182V827.273ZM948.485 827.273H978.788V857.576H948.485V827.273ZM342.424 857.576H372.727V887.879H342.424V857.576ZM403.03 857.576H433.333V887.879H403.03V857.576ZM493.939 857.576H524.242V887.879H493.939V857.576ZM615.152 857.576H645.455V887.879H615.152V857.576ZM675.758 857.576H706.061V887.879H675.758V857.576ZM706.061 857.576H736.364V887.879H706.061V857.576ZM766.667 857.576H796.97V887.879H766.667V857.576ZM827.273 857.576H857.576V887.879H827.273V857.576ZM948.485 857.576H978.788V887.879H948.485V857.576ZM1009.09 857.576H1039.39V887.879H1009.09V857.576ZM1069.7 857.576H1100V887.879H1069.7V857.576ZM100 887.879H130.303V918.182H100V887.879ZM130.303 887.879H160.606V918.182H130.303V887.879ZM160.606 887.879H190.909V918.182H160.606V887.879ZM190.909 887.879H221.212V918.182H190.909V887.879ZM221.212 887.879H251.515V918.182H221.212V887.879ZM251.515 887.879H281.818V918.182H251.515V887.879ZM281.818 887.879H312.121V918.182H281.818V887.879ZM463.636 887.879H493.939V918.182H463.636V887.879ZM493.939 887.879H524.242V918.182H493.939V887.879ZM554.545 887.879H584.848V918.182H554.545V887.879ZM584.848 887.879H615.152V918.182H584.848V887.879ZM615.152 887.879H645.455V918.182H615.152V887.879ZM706.061 887.879H736.364V918.182H706.061V887.879ZM736.364 887.879H766.667V918.182H736.364V887.879ZM766.667 887.879H796.97V918.182H766.667V887.879ZM796.97 887.879H827.273V918.182H796.97V887.879ZM827.273 887.879H857.576V918.182H827.273V887.879ZM887.879 887.879H918.182V918.182H887.879V887.879ZM948.485 887.879H978.788V918.182H948.485V887.879ZM1009.09 887.879H1039.39V918.182H1009.09V887.879ZM100 918.182H130.303V948.485H100V918.182ZM281.818 918.182H312.121V948.485H281.818V918.182ZM342.424 918.182H372.727V948.485H342.424V918.182ZM524.242 918.182H554.545V948.485H524.242V918.182ZM584.848 918.182H615.152V948.485H584.848V918.182ZM615.152 918.182H645.455V948.485H615.152V918.182ZM645.455 918.182H675.758V948.485H645.455V918.182ZM675.758 918.182H706.061V948.485H675.758V918.182ZM706.061 918.182H736.364V948.485H706.061V918.182ZM736.364 918.182H766.667V948.485H736.364V918.182ZM766.667 918.182H796.97V948.485H766.667V918.182ZM796.97 918.182H827.273V948.485H796.97V918.182ZM827.273 918.182H857.576V948.485H827.273V918.182ZM948.485 918.182H978.788V948.485H948.485V918.182ZM978.788 918.182H1009.09V948.485H978.788V918.182ZM1009.09 918.182H1039.39V948.485H1009.09V918.182ZM1039.39 918.182H1069.7V948.485H1039.39V918.182ZM1069.7 918.182H1100V948.485H1069.7V918.182ZM100 948.485H130.303V978.788H100V948.485ZM160.606 948.485H190.909V978.788H160.606V948.485ZM190.909 948.485H221.212V978.788H190.909V948.485ZM221.212 948.485H251.515V978.788H221.212V948.485ZM281.818 948.485H312.121V978.788H281.818V948.485ZM342.424 948.485H372.727V978.788H342.424V948.485ZM372.727 948.485H403.03V978.788H372.727V948.485ZM403.03 948.485H433.333V978.788H403.03V948.485ZM463.636 948.485H493.939V978.788H463.636V948.485ZM493.939 948.485H524.242V978.788H493.939V948.485ZM524.242 948.485H554.545V978.788H524.242V948.485ZM584.848 948.485H615.152V978.788H584.848V948.485ZM675.758 948.485H706.061V978.788H675.758V948.485ZM827.273 948.485H857.576V978.788H827.273V948.485ZM857.576 948.485H887.879V978.788H857.576V948.485ZM887.879 948.485H918.182V978.788H887.879V948.485ZM918.182 948.485H948.485V978.788H918.182V948.485ZM948.485 948.485H978.788V978.788H948.485V948.485ZM978.788 948.485H1009.09V978.788H978.788V948.485ZM1039.39 948.485H1069.7V978.788H1039.39V948.485ZM1069.7 948.485H1100V978.788H1069.7V948.485ZM100 978.788H130.303V1009.09H100V978.788ZM160.606 978.788H190.909V1009.09H160.606V978.788ZM190.909 978.788H221.212V1009.09H190.909V978.788ZM221.212 978.788H251.515V1009.09H221.212V978.788ZM281.818 978.788H312.121V1009.09H281.818V978.788ZM342.424 978.788H372.727V1009.09H342.424V978.788ZM372.727 978.788H403.03V1009.09H372.727V978.788ZM403.03 978.788H433.333V1009.09H403.03V978.788ZM463.636 978.788H493.939V1009.09H463.636V978.788ZM554.545 978.788H584.848V1009.09H554.545V978.788ZM645.455 978.788H675.758V1009.09H645.455V978.788ZM736.364 978.788H766.667V1009.09H736.364V978.788ZM766.667 978.788H796.97V1009.09H766.667V978.788ZM857.576 978.788H887.879V1009.09H857.576V978.788ZM948.485 978.788H978.788V1009.09H948.485V978.788ZM978.788 978.788H1009.09V1009.09H978.788V978.788ZM1039.39 978.788H1069.7V1009.09H1039.39V978.788ZM1069.7 978.788H1100V1009.09H1069.7V978.788ZM100 1009.09H130.303V1039.39H100V1009.09ZM160.606 1009.09H190.909V1039.39H160.606V1009.09ZM190.909 1009.09H221.212V1039.39H190.909V1009.09ZM221.212 1009.09H251.515V1039.39H221.212V1009.09ZM281.818 1009.09H312.121V1039.39H281.818V1009.09ZM342.424 1009.09H372.727V1039.39H342.424V1009.09ZM372.727 1009.09H403.03V1039.39H372.727V1009.09ZM403.03 1009.09H433.333V1039.39H403.03V1009.09ZM433.333 1009.09H463.636V1039.39H433.333V1009.09ZM463.636 1009.09H493.939V1039.39H463.636V1009.09ZM524.242 1009.09H554.545V1039.39H524.242V1009.09ZM554.545 1009.09H584.848V1039.39H554.545V1009.09ZM584.848 1009.09H615.152V1039.39H584.848V1009.09ZM706.061 1009.09H736.364V1039.39H706.061V1009.09ZM766.667 1009.09H796.97V1039.39H766.667V1009.09ZM827.273 1009.09H857.576V1039.39H827.273V1009.09ZM857.576 1009.09H887.879V1039.39H857.576V1009.09ZM887.879 1009.09H918.182V1039.39H887.879V1009.09ZM918.182 1009.09H948.485V1039.39H918.182V1009.09ZM978.788 1009.09H1009.09V1039.39H978.788V1009.09ZM1009.09 1009.09H1039.39V1039.39H1009.09V1009.09ZM100 1039.39H130.303V1069.7H100V1039.39ZM281.818 1039.39H312.121V1069.7H281.818V1039.39ZM372.727 1039.39H403.03V1069.7H372.727V1039.39ZM403.03 1039.39H433.333V1069.7H403.03V1039.39ZM433.333 1039.39H463.636V1069.7H433.333V1039.39ZM463.636 1039.39H493.939V1069.7H463.636V1039.39ZM554.545 1039.39H584.848V1069.7H554.545V1039.39ZM645.455 1039.39H675.758V1069.7H645.455V1039.39ZM736.364 1039.39H766.667V1069.7H736.364V1039.39ZM766.667 1039.39H796.97V1069.7H766.667V1039.39ZM796.97 1039.39H827.273V1069.7H796.97V1039.39ZM948.485 1039.39H978.788V1069.7H948.485V1039.39ZM978.788 1039.39H1009.09V1069.7H978.788V1039.39ZM1009.09 1039.39H1039.39V1069.7H1009.09V1039.39ZM100 1069.7H130.303V1100H100V1069.7ZM130.303 1069.7H160.606V1100H130.303V1069.7ZM160.606 1069.7H190.909V1100H160.606V1069.7ZM190.909 1069.7H221.212V1100H190.909V1069.7ZM221.212 1069.7H251.515V1100H221.212V1069.7ZM251.515 1069.7H281.818V1100H251.515V1069.7ZM281.818 1069.7H312.121V1100H281.818V1069.7ZM342.424 1069.7H372.727V1100H342.424V1069.7ZM433.333 1069.7H463.636V1100H433.333V1069.7ZM463.636 1069.7H493.939V1100H463.636V1069.7ZM493.939 1069.7H524.242V1100H493.939V1069.7ZM524.242 1069.7H554.545V1100H524.242V1069.7ZM554.545 1069.7H584.848V1100H554.545V1069.7ZM615.152 1069.7H645.455V1100H615.152V1069.7ZM766.667 1069.7H796.97V1100H766.667V1069.7ZM796.97 1069.7H827.273V1100H796.97V1069.7ZM827.273 1069.7H857.576V1100H827.273V1069.7ZM918.182 1069.7H948.485V1100H918.182V1069.7ZM1039.39 1069.7H1069.7V1100H1039.39V1069.7Z" fill="black"/>
</g>
<g clip-path="url(#clip1_1_2)">
<path fill-rule="evenodd" clip-rule="evenodd" d="M97.7876 1197.79C431.121 1197.79 764.456 1197.79 1097.79 1197.79C1097.79 1531.12 1097.79 1864.46 1097.79 2197.79C764.456 2197.79 431.121 2197.79 97.7876 2197.79C97.7876 1864.46 97.7876 1531.12 97.7876 1197.79Z" fill="black"/>
<path fill-rule="evenodd" clip-rule="evenodd" d="M513.717 1450C625.81 1450 737.907 1450 850 1450C850 1616.67 850 1783.33 850 1950C793.951 1950 737.907 1950 681.858 1950C681.858 1893.95 681.858 1837.91 681.858 1781.86C571.239 1781.86 460.619 1781.86 350 1781.86C350 1725.81 350 1669.77 350 1613.72C404.572 1613.72 459.145 1613.72 513.717 1613.72C513.717 1559.14 513.717 1504.57 513.717 1450Z" fill="#FEFFFE"/>
</g>
<defs>
<clipPath id="clip0_1_2">
<rect width="1000" height="1000" fill="white" transform="translate(100 100)"/>
</clipPath>
<clipPath id="clip1_1_2">
<rect width="1000" height="1000" fill="white" transform="translate(100 1200)"/>
</clipPath>
</defs>
</svg>
