{"buffers":[{"uri":"kastet_1_o.bin","byteLength":14086824}],"asset":{"version":"2.0","generator":"gltfpack 0.22"},"bufferViews":[{"buffer":0,"byteOffset":0,"byteLength":4005249},{"buffer":0,"byteOffset":4005252,"byteLength":4309155},{"buffer":0,"byteOffset":8314408,"byteLength":5365055},{"buffer":0,"byteOffset":13679464,"byteLength":132696,"byteStride":12,"target":34962},{"buffer":0,"byteOffset":13812160,"byteLength":132696,"byteStride":12,"target":34962},{"buffer":0,"byteOffset":13944856,"byteLength":75096,"byteStride":8,"target":34962},{"buffer":0,"byteOffset":14019952,"byteLength":61854,"target":34963},{"buffer":0,"byteOffset":14081808,"byteLength":456},{"buffer":0,"byteOffset":14082264,"byteLength":2736},{"buffer":0,"byteOffset":14085000,"byteLength":1824}],"accessors":[{"bufferView":3,"byteOffset":0,"componentType":5126,"count":5334,"type":"VEC3","min":[-0.409999996,-0.0949999988,-0.135000005],"max":[0.409999996,0.0949999988,0.135000005]},{"bufferView":4,"byteOffset":0,"componentType":5126,"count":5334,"type":"VEC3"},{"bufferView":5,"byteOffset":0,"componentType":5126,"count":5334,"type":"VEC2"},{"bufferView":6,"byteOffset":0,"componentType":5123,"count":14646,"type":"SCALAR"},{"bufferView":3,"byteOffset":64008,"componentType":5126,"count":4053,"type":"VEC3","min":[-0.409999967,-0.0949999988,-0.144999996],"max":[0.409999967,0.0949999988,0.144999996]},{"bufferView":4,"byteOffset":64008,"componentType":5126,"count":4053,"type":"VEC3"},{"bufferView":5,"byteOffset":42672,"componentType":5126,"count":4053,"type":"VEC2"},{"bufferView":6,"byteOffset":29292,"componentType":5123,"count":11277,"type":"SCALAR"},{"bufferView":3,"byteOffset":112644,"componentType":5126,"count":973,"type":"VEC3","min":[-0.395416558,-0.081098482,0.112999991],"max":[0.396888733,0.0809629858,0.112999991]},{"bufferView":4,"byteOffset":112644,"componentType":5126,"count":973,"type":"VEC3"},{"bufferView":6,"byteOffset":51846,"componentType":5123,"count":2955,"type":"SCALAR"},{"bufferView":3,"byteOffset":124320,"componentType":5126,"count":698,"type":"VEC3","min":[-0.393889993,-0.0781045482,0.144999996],"max":[0.341527909,0.0779682994,0.144999996]},{"bufferView":4,"byteOffset":124320,"componentType":5126,"count":698,"type":"VEC3"},{"bufferView":6,"byteOffset":57756,"componentType":5123,"count":2049,"type":"SCALAR"},{"bufferView":7,"byteOffset":0,"componentType":5126,"count":114,"type":"SCALAR","min":[0],"max":[3.76666689]},{"bufferView":8,"byteOffset":0,"componentType":5126,"count":114,"type":"VEC3"},{"bufferView":9,"byteOffset":0,"componentType":5122,"count":114,"type":"VEC4","normalized":true},{"bufferView":8,"byteOffset":1368,"componentType":5126,"count":114,"type":"VEC3"},{"bufferView":9,"byteOffset":912,"componentType":5122,"count":114,"type":"VEC4","normalized":true}],"samplers":[{"magFilter":9729,"minFilter":9729},{"magFilter":9729,"minFilter":9729},{"magFilter":9729,"minFilter":9729}],"images":[{"bufferView":0,"mimeType":"image/png"},{"bufferView":1,"mimeType":"image/png"},{"bufferView":2,"mimeType":"image/png"}],"textures":[{"sampler":0,"source":0},{"sampler":1,"source":1},{"sampler":2,"source":2}],"materials":[{"name":"M_Kastet_PBR","pbrMetallicRoughness":{"baseColorTexture":{"index":0},"metallicRoughnessTexture":{"index":1}},"normalTexture":{"index":2}},{"pbrMetallicRoughness":{}}],"meshes":[{"primitives":[{"attributes":{"POSITION":0,"NORMAL":1,"TEXCOORD_0":2},"indices":3,"material":0}]},{"primitives":[{"attributes":{"POSITION":4,"NORMAL":5,"TEXCOORD_0":6},"indices":7,"material":0}]},{"primitives":[{"attributes":{"POSITION":8,"NORMAL":9},"indices":10,"material":1}]},{"primitives":[{"attributes":{"POSITION":11,"NORMAL":12},"indices":13,"material":1}]}],"animations":[{"samplers":[{"input":14,"output":15},{"input":14,"output":16},{"input":14,"output":17},{"input":14,"output":18}],"channels":[{"sampler":0,"target":{"node":1,"path":"translation"}},{"sampler":1,"target":{"node":1,"path":"rotation"}},{"sampler":2,"target":{"node":2,"path":"translation"}},{"sampler":3,"target":{"node":2,"path":"rotation"}}]}],"nodes":[{"name":"Kastet","children":[1,2]},{"name":"kastet_negative","translation":[-117.732834,-3.10086148e-06,-7.23715453e-15],"rotation":[2.73751812e-08,-0.707106769,2.73751812e-08,-0.707106769],"scale":[100,99.9999924,99.9999924],"children":[3],"mesh":0},{"name":"kastet_positive","translation":[123.617401,-4.94863343e-06,7.2689386e-15],"rotation":[2.8370966e-08,0.707106769,-2.8370966e-08,-0.707106769],"scale":[100,99.9999924,99.9999924],"children":[4],"mesh":1},{"name":"text_emi","translation":[-1.26217742e-31,1.36847093e-24,0.00100000005],"rotation":[0,0,0,-1],"scale":[1,1,1],"mesh":2},{"name":"text_emi","translation":[6.25057905e-17,2.66292747e-23,0.00100000005],"rotation":[0,0,1.22464685e-16,1],"scale":[1,1,1],"mesh":3}],"scenes":[{"nodes":[0]}]}