<svg width="42" height="41" viewBox="0 0 42 41" fill="none" xmlns="http://www.w3.org/2000/svg">
<path d="M14.8772 32.3951L18.7652 36.2515L14.9089 40.1395" stroke="white" stroke-width="2"/>
<path d="M8.75443 6.35744L21 11.7149V27.0218L8.75443 21.6644V6.35744Z" stroke="white" stroke-width="2" stroke-linejoin="round"/>
<path d="M33.2456 6.35744L21 11.7149V27.0218L33.2456 21.6644V6.35744Z" stroke="white" stroke-width="2" stroke-linejoin="round"/>
<path d="M21.3827 1L8.75445 6.35743L21 11.7149L33.2456 6.35743L21.3827 1Z" stroke="white" stroke-width="2" stroke-linejoin="round"/>
<path d="M24.8267 36.0223C26.4405 35.865 27.9804 35.6103 29.4188 35.2715C35.765 33.7765 40.1337 30.6441 40.1337 27.0218C40.1337 24.1854 37.455 21.6493 33.2456 19.9646M18.3213 36.206C17.9342 36.1683 16.4034 35.9412 16.0252 35.8925C7.87 34.8414 1.8663 31.2681 1.8663 27.0218C1.8663 24.1854 4.54504 21.6493 8.75443 19.9646" stroke="white" stroke-width="2"/>
</svg>
