{
	"asset":{
		"version":"2.0",
		"generator":"Blender Foundation Blender (stable FBX IO) 4.2.3 LTS"
	},
	"scenes":[{
		"nodes":[0]
	}],
	"nodes":[{
		"name":"Kastet",
		"children":[1,
		2]
	},
	{
		"name":"kastet_negative",
		"mesh":0,
		"translation":[-117.73283386230469,
		-0.0000031008614769234556,
		-7.237154533426202e-15],
		"rotation":[2.7375181232969227e-8,
		-0.7071067690849304,
		2.7375181232969227e-8,
		-0.7071067690849304],
		"scale":[100.0,
		99.99999237060547,
		99.99999237060547],
		"children":[3]
	},
	{
		"name":"kastet_positive",
		"mesh":1,
		"translation":[123.61740112304688,
		-0.000004948633431922644,
		7.268938597738972e-15],
		"rotation":[2.83709660209297e-8,
		0.7071067690849304,
		-2.83709660209297e-8,
		-0.7071067690849304],
		"scale":[100.0,
		99.99999237060547,
		99.99999237060547],
		"children":[4]
	},
	{
		"name":"text_emi",
		"mesh":2,
		"translation":[-1.2621774201417545e-31,
		1.3684709333058137e-24,
		0.0010000000474974514],
		"rotation":[0.0,
		0.0,
		0.0,
		-1.0],
		"scale":[1.0,
		1.0,
		1.0]
	},
	{
		"name":"text_emi",
		"mesh":3,
		"translation":[6.250579049100623e-17,
		2.662927465495809e-23,
		0.0010000000474974514],
		"rotation":[0.0,
		0.0,
		1.2246468525851679e-16,
		1.0],
		"scale":[1.0,
		1.0,
		1.0]
	}],
	"meshes":[{
		"name":"kastet_negative",
		"primitives":[{
			"attributes":{
				"POSITION":1,
				"NORMAL":2,
				"TEXCOORD_0":3
			},
			"indices":0,
			"material":0
		}]
	},
	{
		"name":"kastet_positive",
		"primitives":[{
			"attributes":{
				"POSITION":9,
				"NORMAL":10,
				"TEXCOORD_0":11
			},
			"indices":8,
			"material":0
		}]
	},
	{
		"name":"text_emi",
		"primitives":[{
			"attributes":{
				"POSITION":17,
				"NORMAL":18,
				"TEXCOORD_0":19
			},
			"indices":16,
			"material":1
		}]
	},
	{
		"name":"text_emi",
		"primitives":[{
			"attributes":{
				"POSITION":21,
				"NORMAL":22,
				"TEXCOORD_0":23
			},
			"indices":20,
			"material":2
		}]
	}],
	"accessors":[{
		"bufferView":0,
		"type":"SCALAR",
		"count":14646,
		"componentType":5123,
		"byteOffset":0,
		"min":[0],
		"max":[5333]
	},
	{
		"bufferView":1,
		"type":"VEC3",
		"count":5334,
		"componentType":5126,
		"byteOffset":0,
		"min":[-0.4099999964237213,
		-0.0949999988079071,
		-0.13500000536441804],
		"max":[0.4099999964237213,
		0.0949999988079071,
		0.13500000536441804]
	},
	{
		"bufferView":1,
		"type":"VEC3",
		"count":5334,
		"componentType":5126,
		"byteOffset":12,
		"min":[-1.0,
		-1.0,
		-1.0],
		"max":[1.0,
		1.0,
		1.0]
	},
	{
		"bufferView":1,
		"type":"VEC2",
		"count":5334,
		"componentType":5126,
		"byteOffset":24,
		"min":[0.0017145131714642048,
		0.026827692985534669],
		"max":[0.9982324242591858,
		0.998278021812439]
	},
	{
		"bufferView":2,
		"type":"SCALAR",
		"count":91,
		"componentType":5126,
		"byteOffset":0,
		"min":[0.0],
		"max":[3.75]
	},
	{
		"bufferView":2,
		"type":"VEC3",
		"count":91,
		"componentType":5126,
		"byteOffset":364,
		"min":[-117.73283386230469,
		-0.0000031008614769234556,
		-7.237154533426202e-15],
		"max":[-14.339604377746582,
		-0.0000031008614769234556,
		-7.237154533426202e-15]
	},
	{
		"bufferView":3,
		"type":"SCALAR",
		"count":91,
		"componentType":5126,
		"byteOffset":0,
		"min":[0.0],
		"max":[3.75]
	},
	{
		"bufferView":3,
		"type":"VEC4",
		"count":91,
		"componentType":5126,
		"byteOffset":364,
		"min":[0.0,
		-0.7071067690849304,
		-3.993128672163948e-8,
		-1.0],
		"max":[2.7801204893762589e-8,
		0.0,
		3.948672500087014e-8,
		0.9999327659606934]
	},
	{
		"bufferView":4,
		"type":"SCALAR",
		"count":11277,
		"componentType":5123,
		"byteOffset":0,
		"min":[0],
		"max":[4052]
	},
	{
		"bufferView":5,
		"type":"VEC3",
		"count":4053,
		"componentType":5126,
		"byteOffset":0,
		"min":[-0.4099999666213989,
		-0.0949999988079071,
		-0.14499999582767487],
		"max":[0.4099999666213989,
		0.0949999988079071,
		0.14499999582767487]
	},
	{
		"bufferView":5,
		"type":"VEC3",
		"count":4053,
		"componentType":5126,
		"byteOffset":12,
		"min":[-1.0,
		-1.0,
		-0.9999317526817322],
		"max":[1.0,
		1.0,
		1.0]
	},
	{
		"bufferView":5,
		"type":"VEC2",
		"count":4053,
		"componentType":5126,
		"byteOffset":24,
		"min":[0.0017245870549231768,
		0.0018387436866760254],
		"max":[0.998155415058136,
		0.9982757568359375]
	},
	{
		"bufferView":6,
		"type":"SCALAR",
		"count":91,
		"componentType":5126,
		"byteOffset":0,
		"min":[0.0],
		"max":[3.75]
	},
	{
		"bufferView":6,
		"type":"VEC3",
		"count":91,
		"componentType":5126,
		"byteOffset":364,
		"min":[11.978372573852539,
		-0.000004948633431922644,
		7.268938597738972e-15],
		"max":[123.61740112304688,
		-0.000004948633431922644,
		7.268938597738972e-15]
	},
	{
		"bufferView":7,
		"type":"SCALAR",
		"count":91,
		"componentType":5126,
		"byteOffset":0,
		"min":[0.0],
		"max":[3.75]
	},
	{
		"bufferView":7,
		"type":"VEC4",
		"count":91,
		"componentType":5126,
		"byteOffset":364,
		"min":[0.0,
		0.0,
		-3.846030338650053e-8,
		-0.9998853206634522],
		"max":[2.8070523683254579e-8,
		0.7071067690849304,
		3.942476567431186e-8,
		1.0]
	},
	{
		"bufferView":8,
		"type":"SCALAR",
		"count":2955,
		"componentType":5123,
		"byteOffset":0,
		"min":[0],
		"max":[972]
	},
	{
		"bufferView":9,
		"type":"VEC3",
		"count":973,
		"componentType":5126,
		"byteOffset":0,
		"min":[-0.3954165577888489,
		-0.08109848201274872,
		0.11299999058246613],
		"max":[0.39688873291015627,
		0.08096298575401306,
		0.11299999058246613]
	},
	{
		"bufferView":9,
		"type":"VEC3",
		"count":973,
		"componentType":5126,
		"byteOffset":12,
		"min":[0.0,
		0.0,
		1.0],
		"max":[0.0,
		0.0,
		1.0]
	},
	{
		"bufferView":9,
		"type":"VEC2",
		"count":973,
		"componentType":5126,
		"byteOffset":24,
		"min":[0.439065158367157,
		0.026827692985534669],
		"max":[0.9981330633163452,
		0.9982684850692749]
	},
	{
		"bufferView":10,
		"type":"SCALAR",
		"count":2049,
		"componentType":5123,
		"byteOffset":0,
		"min":[0],
		"max":[697]
	},
	{
		"bufferView":11,
		"type":"VEC3",
		"count":698,
		"componentType":5126,
		"byteOffset":0,
		"min":[-0.39388999342918398,
		-0.07810454815626145,
		0.14499999582767487],
		"max":[0.34152790904045107,
		0.0779682993888855,
		0.14499999582767487]
	},
	{
		"bufferView":11,
		"type":"VEC3",
		"count":698,
		"componentType":5126,
		"byteOffset":12,
		"min":[0.0,
		0.0,
		1.0],
		"max":[0.0,
		0.0,
		1.0]
	},
	{
		"bufferView":11,
		"type":"VEC2",
		"count":698,
		"componentType":5126,
		"byteOffset":24,
		"min":[0.019621653482317926,
		0.7684304714202881],
		"max":[0.9484218955039978,
		0.9982757568359375]
	}],
	"bufferViews":[{
		"buffer":0,
		"byteOffset":0,
		"target":34963,
		"byteLength":29292
	},
	{
		"buffer":0,
		"byteOffset":29292,
		"target":34962,
		"byteLength":170688,
		"byteStride":32
	},
	{
		"buffer":1,
		"byteOffset":0,
		"byteLength":1456
	},
	{
		"buffer":1,
		"byteOffset":1456,
		"byteLength":1820
	},
	{
		"buffer":2,
		"byteOffset":0,
		"target":34963,
		"byteLength":22554
	},
	{
		"buffer":2,
		"byteOffset":22556,
		"target":34962,
		"byteLength":129696,
		"byteStride":32
	},
	{
		"buffer":3,
		"byteOffset":0,
		"byteLength":1456
	},
	{
		"buffer":3,
		"byteOffset":1456,
		"byteLength":1820
	},
	{
		"buffer":4,
		"byteOffset":0,
		"target":34963,
		"byteLength":5910
	},
	{
		"buffer":4,
		"byteOffset":5912,
		"target":34962,
		"byteLength":31136,
		"byteStride":32
	},
	{
		"buffer":5,
		"byteOffset":0,
		"target":34963,
		"byteLength":4098
	},
	{
		"buffer":5,
		"byteOffset":4100,
		"target":34962,
		"byteLength":22336,
		"byteStride":32
	}],
	"buffers":[{
		"uri":"data:application/octet-stream;base64,",
		"byteLength":199980
	},
	{
		"uri":"data:application/octet-stream;base64,",
		"byteLength":3276
	},
	{
		"uri":"data:application/octet-stream;base64,",
		"byteLength":152252
	},
	{
		"uri":"data:application/octet-stream;base64,",
		"byteLength":3276
	},
	{
		"uri":"data:application/octet-stream;base64,",
		"byteLength":37048
	},
	{
		"uri":"data:application/octet-stream;base64,",
		"byteLength":26436
	}],
	"images":[{
		"uri":"data:image/png;base64,"
	},
	{
		"uri":"data:image/png;base64,"
	},
	{
		"uri":"data:image/png;base64,"
	}],
	"samplers":[{
		"magFilter":9729,
		"minFilter":9729,
		"wrapS":10497,
		"wrapT":10497
	},
	{
		"magFilter":9729,
		"minFilter":9729,
		"wrapS":10497,
		"wrapT":10497
	},
	{
		"magFilter":9729,
		"minFilter":9729,
		"wrapS":10497,
		"wrapT":10497
	}],
	"textures":[{
		"sampler":0,
		"source":0
	},
	{
		"sampler":1,
		"source":1
	},
	{
		"sampler":2,
		"source":2
	}],
	"materials":[{
		"pbrMetallicRoughness":{
			"baseColorTexture":{
				"index":0
			},
			"baseColorFactor":[1.0,
			1.0,
			1.0,
			1.0],
			"metallicRoughnessTexture":{
				"index":1
			},
			"metallicFactor":1.0,
			"roughnessFactor":1.0
		},
		"normalTexture":{
			"scale":1.0,
			"index":2
		},
		"emissiveFactor":[0.0,
		0.0,
		0.0],
		"name":"M_kastet_PBR",
		"alphaMode":"OPAQUE",
		"doubleSided":false
	},
	{
		"pbrMetallicRoughness":{
			"baseColorFactor":[1.0,
			1.0,
			1.0,
			1.0],
			"metallicFactor":1.0,
			"roughnessFactor":1.0
		},
		"emissiveFactor":[0.0,
		0.0,
		0.0],
		"name":"",
		"alphaMode":"OPAQUE",
		"doubleSided":false
	},
	{
		"pbrMetallicRoughness":{
			"baseColorFactor":[1.0,
			1.0,
			1.0,
			1.0],
			"metallicFactor":1.0,
			"roughnessFactor":1.0
		},
		"emissiveFactor":[0.0,
		0.0,
		0.0],
		"name":"",
		"alphaMode":"OPAQUE",
		"doubleSided":false
	}],
	"animations":[{
		"samplers":[{
			"input":4,
			"interpolation":"LINEAR",
			"output":5
		},
		{
			"input":6,
			"interpolation":"LINEAR",
			"output":7
		},
		{
			"input":12,
			"interpolation":"LINEAR",
			"output":13
		},
		{
			"input":14,
			"interpolation":"LINEAR",
			"output":15
		}],
		"channels":[{
			"sampler":0,
			"target":{
				"node":1,
				"path":"translation"
			}
		},
		{
			"sampler":1,
			"target":{
				"node":1,
				"path":"rotation"
			}
		},
		{
			"sampler":2,
			"target":{
				"node":2,
				"path":"translation"
			}
		},
		{
			"sampler":3,
			"target":{
				"node":2,
				"path":"rotation"
			}
		}]
	}]
}